<svg width="32" height="32" viewBox="0 0 32 32" fill="none" xmlns="http://www.w3.org/2000/svg">
<path d="M16 2.66675C8.65332 2.66675 2.66666 8.65341 2.66666 16.0001C2.66666 23.3467 8.65332 29.3334 16 29.3334C23.3467 29.3334 29.3333 23.3467 29.3333 16.0001C29.3333 8.65341 23.3467 2.66675 16 2.66675ZM21.3333 17.0001H17V21.3334C17 21.8801 16.5467 22.3334 16 22.3334C15.4533 22.3334 15 21.8801 15 21.3334V17.0001H10.6667C10.12 17.0001 9.66666 16.5467 9.66666 16.0001C9.66666 15.4534 10.12 15.0001 10.6667 15.0001H15V10.6667C15 10.1201 15.4533 9.66675 16 9.66675C16.5467 9.66675 17 10.1201 17 10.6667V15.0001H21.3333C21.88 15.0001 22.3333 15.4534 22.3333 16.0001C22.3333 16.5467 21.88 17.0001 21.3333 17.0001Z" fill="#0BD0F3"/>
</svg>
