<svg width="90" height="90" viewBox="0 0 90 90" fill="none" xmlns="http://www.w3.org/2000/svg">
<path d="M90 45C90 56.9347 85.2589 68.3807 76.8198 76.8198C68.3807 85.2589 56.9347 90 45 90C33.0653 90 21.6193 85.2589 13.1802 76.8198C4.74106 68.3807 0 56.9347 0 45C0 33.0653 4.74106 21.6193 13.1802 13.1802C21.6193 4.74106 33.0653 0 45 0C56.9347 0 68.3807 4.74106 76.8198 13.1802C85.2589 21.6193 90 33.0653 90 45ZM38.1937 28.6481C37.7732 28.3487 37.2784 28.1708 36.7634 28.1339C36.2485 28.097 35.7333 28.2026 35.2744 28.439C34.8155 28.6755 34.4305 29.0337 34.1616 29.4743C33.8927 29.915 33.7503 30.4212 33.75 30.9375V59.0625C33.7503 59.5788 33.8927 60.085 34.1616 60.5257C34.4305 60.9663 34.8155 61.3245 35.2744 61.561C35.7333 61.7974 36.2485 61.903 36.7634 61.8661C37.2784 61.8292 37.7732 61.6513 38.1937 61.3519L57.8812 47.2894C58.2458 47.0292 58.543 46.6857 58.7481 46.2875C58.9531 45.8893 59.0601 45.4479 59.0601 45C59.0601 44.5521 58.9531 44.1107 58.7481 43.7125C58.543 43.3143 58.2458 42.9708 57.8812 42.7106L38.1937 28.6481Z" fill="white"/>
</svg>
